<?xml version="1.0" encoding="utf-8"?>
<!-- Generator: Adobe Illustrator 25.0.0, SVG Export Plug-In . SVG Version: 6.00 Build 0)  -->
<svg version="1.1" id="Capa_1" xmlns="http://www.w3.org/2000/svg" xmlns:xlink="http://www.w3.org/1999/xlink" x="0px" y="0px"
	 viewBox="0 0 48 48" style="enable-background:new 0 0 48 48;" xml:space="preserve">
<style type="text/css">
	.st0{fill:#0088cc;}
</style>
<g id="Grupo_7326">
	<path id="Trazado_4159" class="st0" d="M29.9,23.9c-1.3-1.4-3-2.2-4.9-2.2h-2c-0.6,0-1.2-0.3-1.6-0.7c-0.8-0.9-0.7-2.3,0.2-3.1
		c0.4-0.4,1-0.6,1.6-0.6h2.3c0.7,0,1.2,0.5,1.4,1.1c0.1,0.4,0.5,0.7,0.9,0.7h2.6c0.3,0,0.5-0.1,0.7-0.3c0.2-0.2,0.3-0.5,0.3-0.7
		c-0.3-2.7-2.4-4.9-5.1-5.2v-2.3c0-0.5-0.4-0.9-0.9-0.9c0,0,0,0,0,0h-2.6c-0.5,0-0.9,0.4-0.9,0.9c0,0,0,0,0,0V13
		c-3.4,0.6-5.7,3.7-5.4,7.2c0.4,3.5,3.4,6.1,6.9,6H25c1.2,0,2.2,0.9,2.3,2.2s-0.9,2.2-2.2,2.3c-0.1,0-0.2,0-0.3,0h-2.3
		c-0.7,0-1.2-0.5-1.4-1.1c-0.1-0.4-0.5-0.7-0.9-0.7h-2.6c-0.3,0-0.5,0.1-0.7,0.3c-0.2,0.2-0.2,0.5-0.2,0.7c0.3,2.7,2.4,4.9,5.1,5.2
		v2.2c0,0.5,0.4,0.9,0.9,0.9h2.6c0.5,0,0.9-0.4,0.9-0.9v-2.4c2.9-0.5,5.1-2.9,5.4-5.8C31.8,27.2,31.2,25.3,29.9,23.9z"/>
	<path id="Trazado_4160" class="st0" d="M24,0C10.7,0,0,10.7,0,24s10.7,24,24,24s24-10.7,24-24S37.3,0,24,0z M4.3,24
		c0-4.5,1.5-8.8,4.3-12.3l5.7,5.7c0.3-1.5,1.1-2.9,2.2-3.9l-4.8-4.8c8.5-6.8,20.8-5.4,27.6,3.1c5.7,7.2,5.7,17.3,0,24.5l-5.6-5.7
		c-0.4,1.5-1.1,2.9-2.2,3.9l4.8,4.8c-8.5,6.8-20.8,5.4-27.6-3.1C5.9,32.8,4.3,28.5,4.3,24z"/>
</g>
</svg>
