<svg id="Capa_1" data-name="Capa 1" xmlns="http://www.w3.org/2000/svg" viewBox="0 0 48 48"><defs><style>.cls-1{fill:#0088cc;}</style></defs><path class="cls-1" d="M24,0A24,24,0,1,0,48,24,24,24,0,0,0,24,0ZM35.6,10.2l2.46-2.46a1.56,1.56,0,0,1,2.2,2.2L37.8,12.4a1.56,1.56,0,0,1-2.2-2.2ZM22.44,6.05V2.55a1.56,1.56,0,1,1,3.12,0h0v3.5a1.56,1.56,0,1,1-3.12,0ZM6.17,25.55H2.55a1.56,1.56,0,0,1-.12-3.11H6.05a1.56,1.56,0,0,1,.12,3.11Zm6.24,12.24h0L9.93,40.26a1.56,1.56,0,0,1-2.2-2.2L10.2,35.6a1.56,1.56,0,0,1,2.21,2.19Zm.06-25.4a1.55,1.55,0,0,1-2.2.08l-.07-.07L7.73,9.94a1.55,1.55,0,0,1,0-2.2h0a1.57,1.57,0,0,1,2.2,0l2.47,2.46A1.55,1.55,0,0,1,12.47,12.39ZM25.56,45.44a1.56,1.56,0,0,1-3.12,0h0V42a1.56,1.56,0,1,1,3.12,0Zm3.67-30.55-3.78,9.68a1.56,1.56,0,0,1-1.15.95l-9.39,1.89a1.63,1.63,0,0,1-.31,0,1.55,1.55,0,0,1-.3-3.08l8.56-1.72,3.46-8.88a1.57,1.57,0,0,1,2.05-.84,1.55,1.55,0,0,1,.86,2Zm11,25.37a1.54,1.54,0,0,1-2.19,0L35.6,37.8a1.56,1.56,0,1,1,2.14-2.26.17.17,0,0,1,.06.06l2.46,2.46A1.56,1.56,0,0,1,40.25,40.26Zm5.32-14.71H42a1.56,1.56,0,0,1-.12-3.11h3.6a1.56,1.56,0,0,1,.12,3.11Z"/></svg>