<svg id="Group_5083" data-name="Group 5083" xmlns="http://www.w3.org/2000/svg" width="172.09" height="34.669" viewBox="0 0 172.09 34.669">
  <g id="Group_4375" data-name="Group 4375" transform="translate(0 2.476)">
    <path id="Path_2295" data-name="Path 2295" d="M122.457,114.371l-2.19.83-.211.591-.491.319a17.094,17.094,0,0,0-.268-2.541l.791-.01,1.457-1.778-2.119.91-.191.619-2.08,1.577a15.944,15.944,0,0,1,.085,2.733l.46-.31c.2,8.665-3.763,11.925-3.763,11.925a3.583,3.583,0,0,1-1.26-.8c3.613-4.026,3.447-9.845,3.441-10.053l-.381.251a19.406,19.406,0,0,0,.054-2.712l-.666.505c-.016-.595-.05-1.09-.09-1.434a1.751,1.751,0,0,0,1.159-.279,2.5,2.5,0,0,0,.61-1.361c.06-.329-.01-.44-.21-.57a7.1,7.1,0,0,1-.79-.68s.344-.148,1.15.23c.869.412,1.53.211,2.272-.889l-.891.13.078-.614a.438.438,0,0,1,.046.024,3.037,3.037,0,0,0,.744.28c.2.04.195.011.32.086s.234.1.3.074c0,0,.5.28.7,0a2.582,2.582,0,0,0,.289.15,1.579,1.579,0,0,0,.47.125.767.767,0,0,1,.3.08c.314.158.505.076.549,0s-.194-.324-.381-.479a.835.835,0,0,0-.345-.185c.061-.041.045-.1-.075-.245a2.184,2.184,0,0,0-.514-.341c0-.116-.447-.4-.714-.6s-.161-.194-.446-.489a27.811,27.811,0,0,0-2.241-1.8,16.57,16.57,0,0,0-3.961-2.315c-1.524-.491-2.426-.38-3.071.02a.933.933,0,0,0-.37,1.266,8.633,8.633,0,0,0,.465,1c.129.255.025.251-.035.291s0,.139-.054.129-.1.065-.172.151a.62.62,0,0,1-.292.109.261.261,0,0,1,.047-.211A.86.86,0,0,0,109.7,108c.021-.042.1-.071.1-.071a1.015,1.015,0,0,0-.32.009c.034-.054.064-.063.064-.063a.449.449,0,0,0-.444.171,1.531,1.531,0,0,0-.31-.37c-.119-.111-.18-.271-.308-.4a.35.35,0,0,0,.029-.317.688.688,0,0,0-.4-.314.176.176,0,0,0,.09-.174c-.014-.12-.127-.165-.247-.126a.868.868,0,0,0-.352.12.924.924,0,0,1-.176,0,.883.883,0,0,0-.416-1.126c-.644-.4-1.544-.511-3.07-.02a16.563,16.563,0,0,0-3.959,2.315,27.45,27.45,0,0,0-2.24,1.8c-.287.294-.177.283-.445.489s-.721.484-.716.6a2.2,2.2,0,0,0-.515.341c-.12.145-.135.2-.076.245a.839.839,0,0,0-.344.185c-.185.155-.425.4-.381.479s.235.157.55,0a.759.759,0,0,1,.3-.08,1.568,1.568,0,0,0,.471-.125,2.578,2.578,0,0,0,.29-.15c.2.28.7,0,.7,0a.365.365,0,0,0,.3-.074c.125-.075.121-.046.319-.086a2.963,2.963,0,0,0,.746-.28.206.206,0,0,1,.051-.026l.08.616-.891-.13c.739,1.1,1.4,1.3,2.27.889.807-.378,1.151-.23,1.151-.23a7.1,7.1,0,0,1-.79.68c-.2.13-.27.241-.21.57a2.487,2.487,0,0,0,.61,1.361,1.751,1.751,0,0,0,1.159.279c-.04.345-.074.84-.091,1.434l-.672-.51a19.541,19.541,0,0,0,.053,2.716l-.38-.251c-.008.208-.172,6.028,3.442,10.053a3.618,3.618,0,0,1-1.261.8s-3.962-3.26-3.76-11.925l.46.31a16,16,0,0,1,.083-2.737l-2.073-1.573-.192-.619-2.119-.91,1.459,1.778.79.01a16.721,16.721,0,0,0-.27,2.541l-.489-.319-.211-.591-2.189-.83L96.5,116.1l.77-.049s-.789,7.67,1.816,11.8c2.169,3.434,5.324,3.462,8.2,1.533a18.758,18.758,0,0,1-1.42,3.153,7.839,7.839,0,0,1,1.16.1s-.119.5-.182.65-.051.407.244.421.681.046.681.046-.053.361-.061.552c-.009.259-.034.366,1,.41,1.079-.044,1.008-.151,1-.41-.008-.191-.057-.552-.057-.552s.386-.037.682-.046.306-.267.243-.421-.184-.65-.184-.65a7.862,7.862,0,0,1,1.161-.1,19.272,19.272,0,0,1-1.423-3.153c2.875,1.929,6.032,1.9,8.2-1.533,2.6-4.128,1.815-11.8,1.815-11.8l.77.049ZM109.923,111.4c.086-.386.155-.711.235-.656a.223.223,0,0,0,.269,0c.051-.067.066-.075.106-.007s.279.185.441-.089.115-.135.16-.03.171.149.31.039a2.425,2.425,0,0,1,.35-.255c.1-.049.1-.024.159-.124s.145-.146.15-.211-.06-.14.036-.19.14-.085.225-.045.109-.04.154.015a.1.1,0,0,0,.16,0c.055-.06.1-.154.16-.044s.209.134.239.079.055-.06.1.026a.329.329,0,0,0,.34.125s.145.2.32.169.245-.12.249-.239-.059-.525.06-.436.116.05.15-.021.09.005.151-.01.049-.09.149.01.11.15.2.176a.418.418,0,0,1,.235.155c.1.1.211.22.39.155,0,0,.114.15.236.14,0,0,.245.266.385.226a1.194,1.194,0,0,0,.32.09c.081-.01.1-.063.146-.036s.03-.095.1-.01.21.236.295.211a.9.9,0,0,0,.355.188c.156.021.2.067.251.067s.025-.05.116.02a.343.343,0,0,0,.305.07.294.294,0,0,1,.2-.021.492.492,0,0,0,.093,0,1,1,0,0,1-1.189.348c-.809-.251-1.051-.131-1.219.039a3.355,3.355,0,0,0-.642.971c-.1.31-.048.549.55,1.251a5.408,5.408,0,0,1-1.809-.281,3.938,3.938,0,0,0-2.941-.019c-.167.075-.321.144-.465.216-.106-.108-.373-.382-.471-.507a3.021,3.021,0,0,0,.06-.5.669.669,0,0,0-.09-.414A.668.668,0,0,1,109.923,111.4Zm4.12,3.387a4.361,4.361,0,0,1-2.37.624,4.846,4.846,0,0,1-2.068-.434,4.189,4.189,0,0,1,1.979-.6,5.248,5.248,0,0,1,2.2.321C113.861,114.729,113.948,114.757,114.044,114.789Zm-4.738-1.634a.08.08,0,0,0,.019.007.914.914,0,0,0,.414.05,6.023,6.023,0,0,1,.453.409,4.5,4.5,0,0,0-.8.535,3.082,3.082,0,0,1-.124-.789C109.284,113.291,109.3,113.219,109.305,113.155Zm-1.425-5.469a1.017,1.017,0,0,1,.406.389c.021.056.038.109.052.16a.942.942,0,0,0-.375-.027,1.751,1.751,0,0,0-.512-.547A.647.647,0,0,1,107.881,107.686Zm-.963-.075a.136.136,0,0,0,.008-.018,1.528,1.528,0,0,0,.909.657.413.413,0,0,0-.113.082,1.2,1.2,0,0,1-.545-.15c-.075-.085-.109-.16-.17-.151s0-.091-.054-.129S106.79,107.866,106.918,107.611Zm-.2,3.207a1.531,1.531,0,0,0,.128.432c-.019.034-.037.067-.053.1a1.339,1.339,0,0,0-.191-.545A.27.27,0,0,0,106.72,110.818Zm-5.042,2.724c.6-.7.649-.941.549-1.251a3.316,3.316,0,0,0-.64-.971c-.169-.17-.409-.29-1.22-.039a1,1,0,0,1-1.189-.347.431.431,0,0,0,.087,0,.3.3,0,0,1,.2.021.341.341,0,0,0,.3-.07c.09-.07.065-.02.115-.02s.1-.046.25-.067a.9.9,0,0,0,.355-.188c.086.025.219-.126.3-.211s.054.041.1.01.065.026.145.036a1.211,1.211,0,0,0,.32-.09c.139.04.385-.226.385-.226.119.01.235-.14.235-.14.179.065.291-.05.391-.155a.41.41,0,0,1,.234-.155c.1-.026.1-.075.2-.176s.09-.023.15-.01.116-.058.151.01.03.111.15.021.055.315.059.436.076.208.251.239.32-.169.32-.169a.329.329,0,0,0,.339-.125c.041-.086.066-.08.095-.026s.176.03.242-.079.1-.016.159.044a.1.1,0,0,0,.16,0c.044-.055.071.025.156-.015s.13,0,.224.045.03.125.036.19.1.11.15.211.062.075.16.124a2.456,2.456,0,0,1,.35.255.19.19,0,0,0,.3-.049c.02.089.05.235.093.235h0c.043,0,.08-.113.111-.184.044.061.094.046.142.065a1.423,1.423,0,0,0,.053,1.378h0c.02,0,.036-.026.052-.068a1.859,1.859,0,0,1,.02.5,2.327,2.327,0,0,0-.33.678,3.958,3.958,0,0,0-2.9.043A5.558,5.558,0,0,1,101.678,113.542Zm4.383.854a3.712,3.712,0,0,1-.489,1.013,4.3,4.3,0,0,1-2.213-.62l.258-.087a5.249,5.249,0,0,1,2.2-.321C105.9,114.384,105.981,114.391,106.061,114.4Zm-3.406.532c.092-.016.184-.02.289-.046a3.7,3.7,0,0,0,2.692.959,4.635,4.635,0,0,0,3.062-.974,4.619,4.619,0,0,0,3.061.977,3.7,3.7,0,0,0,2.692-.951c.108.026.2.018.29.034a23.532,23.532,0,0,1-.162,4.928H102.817A23.607,23.607,0,0,1,102.655,114.928Zm.162,5.28h11.762a12.691,12.691,0,0,1-1.14,4.137h-9.482A12.662,12.662,0,0,1,102.817,120.208Zm5.881,9.632a13.339,13.339,0,0,1-4.562-5.162h9.121A13.3,13.3,0,0,1,108.7,129.84Z" transform="translate(-94.947 -105)" fill="#e5eefb"/>
    <path id="Path_2296" data-name="Path 2296" d="M186.237,176.788a.941.941,0,0,0,.551-.2.724.724,0,0,0,.262.04.861.861,0,0,0,.743-.513.69.69,0,0,0,.422-.07.79.79,0,0,0,.358-.855c.017-.01.03-.023.045-.035a.7.7,0,0,0-.008-.974.13.13,0,0,0-.026-.026.345.345,0,0,0,.149-.276c0-.2-.241-.36-.463-.36s-.461.16-.461.36v0a1.473,1.473,0,0,0-.218.118.524.524,0,0,0-.158.375.614.614,0,0,0-.1.049.543.543,0,0,0-.135.106.654.654,0,0,0-.191-.022.737.737,0,0,0-.274.058.907.907,0,0,0-.541-.165,1.207,1.207,0,0,0,.046,2.389Z" transform="translate(-170.282 -162.206)" fill="#e5eefb"/>
    <path id="Path_2297" data-name="Path 2297" d="M149.787,175.155a.364.364,0,0,0,.045.035.79.79,0,0,0,.357.855.689.689,0,0,0,.422.07.861.861,0,0,0,.743.513.721.721,0,0,0,.261-.04.937.937,0,0,0,.55.2,1.207,1.207,0,0,0,.046-2.389.922.922,0,0,0-.542.164.747.747,0,0,0-.275-.057.72.72,0,0,0-.193.021.647.647,0,0,0-.145-.1.581.581,0,0,0-.119-.049.5.5,0,0,0-.146-.375,1.349,1.349,0,0,0-.236-.118v0a.423.423,0,0,0-.442-.36.4.4,0,0,0-.422.36.335.335,0,0,0,.136.276c-.008.008-.019.016-.029.026A.7.7,0,0,0,149.787,175.155Z" transform="translate(-140.572 -162.206)" fill="#e5eefb"/>
    <path id="Path_2298" data-name="Path 2298" d="M173.228,202.489l.488-.74-.093-.35.384.053c.026.16.129.343.283.366a1.9,1.9,0,0,0,.411,0l.145-.169a3.177,3.177,0,0,0-.4-.316,7.5,7.5,0,0,0-.362-2.082c-.128-.368-.3-.378-.624-.335a5.737,5.737,0,0,0-1.207.575l-.061.512.3.033s-.172.575-.232.781-.008.2.1.276a2.786,2.786,0,0,0,.532.178l-.12.532Z" transform="translate(-159.439 -183.395)" fill="#e5eefb"/>
    <path id="Path_2299" data-name="Path 2299" d="M171.516,170.707c.176,1.013.828,1.105,1.085,1.1a3.513,3.513,0,0,1-.066.64l.32.22a5.737,5.737,0,0,0,0-1.031c.771-.112.928-1.258.928-1.258a1.46,1.46,0,0,0-.942,1.128,2.065,2.065,0,0,0-.2-.724.975.975,0,0,0,.866-.97.964.964,0,0,0-.312-.712l.16-.3-.34.068-.14-.26-.25.2-.15-.2-.16.231-.3-.169.084.272a.974.974,0,0,0,.27,1.834,1.742,1.742,0,0,1,.228.825A2.243,2.243,0,0,0,171.516,170.707Zm1.058.058c-.235,0-.426-.42-.426-.94s.191-.936.426-.936.426.42.426.936S172.809,170.765,172.574,170.765Z" transform="translate(-158.874 -158.105)" fill="#e5eefb"/>
    <path id="Path_2300" data-name="Path 2300" d="M176.815,228.632a.791.791,0,0,1,0-.627h-1.173a.782.782,0,0,0,0,.627Z" transform="translate(-162.264 -207.697)" fill="#e5eefb"/>
    <path id="Path_2301" data-name="Path 2301" d="M175.642,240.7a1.377,1.377,0,0,0,0,.84h1.173a1.393,1.393,0,0,1,0-.84Z" transform="translate(-162.264 -218.296)" fill="#e5eefb"/>
    <path id="Path_2302" data-name="Path 2302" d="M172.246,232.435l.262-.42h-1.794l-.2-.211h-.749l.093.211h.18l.191.42Z" transform="translate(-157.415 -210.868)" fill="#e5eefb"/>
    <path id="Path_2303" data-name="Path 2303" d="M174.463,246h-1.519l-.108-.211h-.394l.12.239.322.177h1.547l.312-.181.044-.236h-.253Z" transform="translate(-159.647 -222.544)" fill="#e5eefb"/>
  </g>
  <g id="Group_4377" data-name="Group 4377" transform="translate(43.769 4.953)">
    <g id="Group_4376" data-name="Group 4376">
      <path id="Path_2304" data-name="Path 2304" d="M378.921,126.03a9.462,9.462,0,0,0-6.4-2.541c-5.556,0-8.774,4.167-8.74,9.18,0,4.336,2.575,8.537,8.74,8.537a8.472,8.472,0,0,0,5.793-2.1V134.3h-6.606v-3.388h10.129v9.722a11.935,11.935,0,0,1-9.316,4.133c-8.706,0-12.466-5.793-12.466-12.094,0-6.843,4.37-12.67,12.466-12.67a12.469,12.469,0,0,1,8.774,3.591Z" transform="translate(-360.052 -120)" fill="#e5eefb"/>
      <path id="Path_2305" data-name="Path 2305" d="M534.459,132.45c0,6.429-3.912,12.314-12.178,12.314s-12.177-6.021-12.177-12.28c0-7.245,5.068-12.484,12.245-12.484C530.479,120.034,534.459,126.021,534.459,132.45Zm-12.178,8.81c5.919,0,8.4-4.184,8.4-8.742,0-4.388-2.517-8.946-8.334-9.048-5.51,0-8.47,3.844-8.47,9.048C513.948,136.736,516.4,141.26,522.281,141.26Z" transform="translate(-485.33 -120)" fill="#e5eefb"/>
      <path id="Path_2306" data-name="Path 2306" d="M675.478,145.146h-4.109L661.15,120.458h4.425l7.831,19.982,7.867-19.982h4.39Z" transform="translate(-611.438 -120.382)" fill="#e5eefb"/>
      <path id="Path_2307" data-name="Path 2307" d="M800.089,242.449a2.481,2.481,0,1,1-4.963,0A2.481,2.481,0,0,1,800.089,242.449Z" transform="translate(-723.294 -220.177)" fill="#e5eefb"/>
      <path id="Path_2308" data-name="Path 2308" d="M861.772,141.216a12.514,12.514,0,0,1-8.971,3.547c-8.663,0-12.552-5.969-12.586-12.245S844.274,120,852.8,120a12.205,12.205,0,0,1,8.732,3.616l-2.558,2.456a8.773,8.773,0,0,0-6.174-2.456c-6.071,0-8.834,4.468-8.8,8.868.034,4.366,2.627,8.7,8.8,8.7a9.255,9.255,0,0,0,6.344-2.592Z" transform="translate(-760.939 -120)" fill="#e5eefb"/>
      <path id="Path_2309" data-name="Path 2309" d="M1014.489,132.87c0,6.409-3.9,12.276-12.14,12.276s-12.14-6-12.14-12.242c0-7.223,5.052-12.445,12.208-12.445C1010.521,120.492,1014.489,126.46,1014.489,132.87Zm-12.14,8.783c5.9,0,8.376-4.171,8.376-8.715,0-4.375-2.509-8.919-8.308-9.02-5.494,0-8.444,3.832-8.444,9.02C994.04,137.143,996.481,141.653,1002.348,141.653Z" transform="translate(-886.168 -120.382)" fill="#e5eefb"/>
    </g>
  </g>
  <g id="Group_4378" data-name="Group 4378" transform="translate(33.863)">
    <rect id="Rectangle_1847" data-name="Rectangle 1847" width="2.665" height="14.858" transform="translate(0)" fill="#e5eefb"/>
    <rect id="Rectangle_1848" data-name="Rectangle 1848" width="2.665" height="9.905" transform="translate(0 14.858)" fill="#e5eefb"/>
    <rect id="Rectangle_1849" data-name="Rectangle 1849" width="2.665" height="9.906" transform="translate(0 24.763)" fill="#e5eefb"/>
  </g>
</svg>
